#!OML:ASF E:\acrobat2\Project_11_07_03\Capture day 1\Session 1\Acrobat.ASF
:FULLY-SPECIFIED
:DEGREES
606
root 11.7022 17.8701 26.3934 1.58008 11.2641 -2.66492
lowerback -3.69414 -1.29091 1.98811
upperback 0.195415 -1.84428 1.62424
thorax 2.2623 -0.904962 0.450709
lowerneck 2.20128 -1.97512 -1.52489
upperneck 4.85986 -2.86296 5.91235
head 1.26203 -1.38618 2.10953
rclavicle -3.37344e-014 -1.80894e-014
rhumerus -46.2246 -7.81764 -76.9028
rradius 21.7104
rwrist 12.1373
rhand 4.41461 -47.4326
rfingers 7.12502
rthumb 29.8115 -75.0538
lclavicle -3.37344e-014 -1.80894e-014
lhumerus -18.7123 -17.135 87.6024
lradius 30.6538
lwrist 13.6612
lhand -16.8962 -11.391
lfingers 7.12502
lthumb 9.33546 18.3823
rfemur -8.71647 2.2494 19.9287
rtibia 1.41073
rfoot -12.9563 -24.3169
rtoes 32.1521
lfemur -4.59364 1.03537 -7.22422
ltibia 51.3227
lfoot 11.2666 1.52667
ltoes 38.9223
607
root 11.6751 17.8918 26.5141 1.48794 11.7061 -2.95527
lowerback -3.53536 -1.29407 2.17748
upperback 0.206299 -1.85393 1.74097
thorax 2.18235 -0.908705 0.467969
lowerneck 2.12757 -2.13467 -1.60901
upperneck 4.84537 -3.08544 6.15411
head 1.28654 -1.49473 2.20211
rclavicle 3.22714e-015 3.97569e-015
rhumerus -45.6649 -7.28204 -77.0737
rradius 22.0549
rwrist 11.6199
rhand 4.45919 -47.5252
rfingers 7.12502
rthumb 29.854 -75.1388
lclavicle 3.22714e-015 3.97569e-015
lhumerus -19.0729 -17.2915 88.0907
lradius 29.8974
lwrist 13.9084
lhand -16.1799 -10.813
lfingers 7.12502
lthumb 10.0266 18.9282
rfemur -8.0243 2.69785 20.4205
rtibia 1.13644
rfoot -14.23 -24.5284
rtoes 33.7698
lfemur -6.07717 1.20019 -6.68749
ltibia 53.3852
lfoot 11.4295 2.20923
ltoes 38.2673
608
root 11.6496 17.9103 26.6347 1.41039 12.1233 -3.17683
lowerback -3.40709 -1.28479 2.32546
upperback 0.227308 -1.84514 1.82053
thorax 2.1301 -0.903331 0.470313
lowerneck 2.10786 -2.29386 -1.71194
upperneck 4.74958 -3.30492 6.43663
head 1.27791 -1.60385 2.31228
rclavicle -2.5314e-014 -5.96354e-015
rhumerus -45.1442 -6.64671 -77.3039
rradius 22.5016
rwrist 11.0049
rhand 4.51461 -47.6515
rfingers 7.12502
rthumb 29.9069 -75.2556
lclavicle -2.5314e-014 -5.96354e-015
lhumerus -19.4347 -17.5299 88.5658
lradius 29.1644
lwrist 14.1346
lhand -15.3785 -10.3328
lfingers 7.12502
lthumb 10.7997 19.3695
rfemur -7.39085 2.86112 20.8459
rtibia 0.90678
rfoot -15.0577 -24.6389
rtoes 34.4799
lfemur -7.53926 1.38298 -6.27441
ltibia 55.3139
lfoot 10.9145 2.58861
ltoes 37.1122
609
root 11.6268 17.9265 26.7549 1.35417 12.4962 -3.29782
lowerback -3.30182 -1.26074 2.40943
upperback 0.254535 -1.81389 1.85566
thorax 2.09785 -0.887093 0.46324
lowerneck 2.13567 -2.44627 -1.83265
upperneck 4.59425 -3.51303 6.7499
head 1.2436 -1.70926 2.437
rclavicle -1.95927e-014 0
rhumerus -44.6621 -5.97856 -77.5351
rradius 23.0343
rwrist 10.3798
rhand 4.55622 -47.7208
rfingers 7.12502
rthumb 29.9466 -75.3178
lclavicle -1.95927e-014 0
lhumerus -19.8128 -17.7924 89.0281
lradius 28.4579
lwrist 14.2592
lhand -14.5054 -9.99512
lfingers 7.12502
lthumb 11.6417 19.6615
rfemur -6.81 2.76333 21.158
rtibia 0.740127
rfoot -15.5413 -24.5931
rtoes 34.6846
lfemur -8.95835 1.5973 -6.0266
ltibia 57.0759
lfoot 9.80993 2.73281
ltoes 35.755
610
root 11.6046 17.9411 26.8717 1.31969 12.7738 -3.38114
lowerback -3.17534 -1.20814 2.47345
upperback 0.272164 -1.74208 1.871
thorax 2.04422 -0.851002 0.449481
lowerneck 2.18864 -2.58805 -1.94482
upperneck 4.4117 -3.7042 7.04918
head 1.19577 -1.80744 2.5567
rclavicle 1.53623e-014 3.37934e-014
rhumerus -44.1971 -5.33849 -77.7265
rradius 23.6156
rwrist 9.80656
rhand 4.54893 -47.7141
rfingers 7.12502
rthumb 29.9396 -75.3123
lclavicle 1.53623e-014 3.37934e-014
lhumerus -20.2229 -18.0497 89.4781
lradius 27.7897
lwrist 14.243
lhand -13.567 -9.77715
lfingers 7.12502
lthumb 12.5466 19.8261
rfemur -6.31427 2.68055 21.4377
rtibia 0.655503
rfoot -15.928 -24.5016
rtoes 34.7573
lfemur -10.3586 1.91405 -5.8435
ltibia 58.6718
lfoot 8.36026 2.69045
ltoes 34.2003
611
root 11.5842 17.9549 26.9863 1.287 12.96 -3.43962
lowerback -3.02601 -1.13089 2.54015
upperback 0.287096 -1.63602 1.87071
thorax 1.97491 -0.797896 0.420043
lowerneck 2.25504 -2.71873 -2.04028
upperneck 4.22105 -3.8779 7.31092
head 1.14149 -1.89772 2.66183
rclavicle -3.21286e-014 -9.93923e-016
rhumerus -43.7286 -4.7331 -77.8716
rradius 24.2153
rwrist 9.27671
rhand 4.4745 -47.6771
rfingers 7.12502
rthumb 29.8686 -75.2881
lclavicle -3.21286e-014 -9.93923e-016
lhumerus -20.673 -18.3018 89.917
lradius 27.1639
lwrist 14.0818
lhand -12.5861 -9.6601
lfingers 7.12502
lthumb 13.4921 19.8829
rfemur -5.86017 2.62436 21.7015
rtibia 0.626344
rfoot -16.2437 -24.3749
rtoes 34.7306
lfemur -11.6957 2.30752 -5.71842
ltibia 60.0743
lfoot 6.78009 2.6077
ltoes 33.0597
612
root 11.5656 17.9686 27.0991 1.2474 13.0559 -3.46923
lowerback -2.8589 -1.03139 2.60493
upperback 0.309271 -1.49924 1.85456
thorax 1.90327 -0.729425 0.3766
lowerneck 2.33645 -2.83447 -2.12527
upperneck 4.01404 -4.0288 7.53878
head 1.07758 -1.97769 2.75471
rclavicle -2.83889e-014 3.77691e-015
rhumerus -43.2266 -4.17151 -77.9731
rradius 24.8002
rwrist 8.79038
rhand 4.29157 -47.6402
rfingers 7.12502
rthumb 29.694 -75.2824
lclavicle -2.83889e-014 3.77691e-015
lhumerus -21.1538 -18.5672 90.3425
lradius 26.5794
lwrist 13.8002
lhand -11.605 -9.60133
lfingers 7.12502
lthumb 14.4376 19.8765
rfemur -5.42191 2.62566 21.9468
rtibia 0.635617
rfoot -16.5256 -24.2333
rtoes 34.6558
lfemur -12.9459 2.76574 -5.65699
ltibia 61.2532
lfoot 5.26101 2.54458
ltoes 32.0255
613
root 11.5486 17.9825 27.2101 1.19793 13.0695 -3.48176
lowerback -2.68379 -0.913669 2.67792
upperback 0.348603 -1.33824 1.8249
thorax 1.84494 -0.648521 0.315088
lowerneck 2.41905 -2.92988 -2.19814
upperneck 3.79117 -4.14973 7.73277
head 1.00593 -2.04342 2.8348
rclavicle -2.64881e-014 1.23246e-014
rhumerus -42.6563 -3.66716 -78.0375
rradius 25.3408
rwrist 8.36775
rhand 3.99298 -47.6056
rfingers 7.12502
rthumb 29.409 -75.2983
lclavicle -2.64881e-014 1.23246e-014
lhumerus -21.6459 -18.8461 90.7455
lradius 26.0354
lwrist 13.4192
lhand -10.6614 -9.56119
lfingers 7.12502
lthumb 15.3467 19.8493
rfemur -4.99169 2.69635 22.1879
rtibia 0.6754
rfoot -16.8106 -24.088
rtoes 34.5902
lfemur -14.1116 3.28346 -5.64327
ltibia 62.2035
lfoot 3.90857 2.5286
ltoes 30.7874
614
root 11.533 17.9968 27.3197 1.14326 13.0092 -3.46758
lowerback -2.51008 -0.780882 2.74693
upperback 0.409509 -1.15729 1.77874
thorax 1.81015 -0.557282 0.238778
lowerneck 2.48842 -3.0037 -2.2654
upperneck 3.56434 -4.24027 7.90421
head 0.933125 -2.09415 2.90673
rclavicle -9.10061e-015 4.25399e-014
rhumerus -42.015 -3.2184 -78.07
rradius 25.837
rwrist 8.02764
rhand 3.62859 -47.556
rfingers 7.12502
rthumb 29.061 -75.3092
lclavicle -9.10061e-015 4.25399e-014
lhumerus -22.1355 -19.1451 91.1241
lradius 25.5261
lwrist 12.979
lhand -9.78921 -9.55114
lfingers 7.12502
lthumb 16.1866 19.793
rfemur -4.5721 2.78881 22.4139
rtibia 0.741489
rfoot -17.0281 -23.9524
rtoes 34.3204
lfemur -15.1985 3.84663 -5.68563
ltibia 62.9459
lfoot 2.72201 2.54616
ltoes 29.5442
